<svg width="14" height="14" viewBox="0 0 14 14" fill="none" xmlns="http://www.w3.org/2000/svg">
<path d="M10.4994 7.58332H7.58268V10.5C7.58268 10.8208 7.32018 11.0833 6.99935 11.0833C6.67852 11.0833 6.41602 10.8208 6.41602 10.5V7.58332H3.49935C3.17852 7.58332 2.91602 7.32082 2.91602 6.99999C2.91602 6.67916 3.17852 6.41666 3.49935 6.41666H6.41602V3.49999C6.41602 3.17916 6.67852 2.91666 6.99935 2.91666C7.32018 2.91666 7.58268 3.17916 7.58268 3.49999V6.41666H10.4994C10.8202 6.41666 11.0827 6.67916 11.0827 6.99999C11.0827 7.32082 10.8202 7.58332 10.4994 7.58332Z" fill="#343434"/>
</svg>
