<svg width="26" height="26" viewBox="0 0 26 26" fill="none" xmlns="http://www.w3.org/2000/svg">
<path d="M13.0001 22.7228L11.8897 21.7208C9.97578 19.9694 8.39592 18.4572 7.15008 17.1843C5.90425 15.9114 4.91119 14.7739 4.17092 13.7718C3.43064 12.7697 2.91154 11.8624 2.61362 11.0499C2.31571 10.2374 2.16675 9.41589 2.16675 8.58533C2.16675 6.96033 2.71293 5.60165 3.80529 4.50929C4.89765 3.41693 6.2473 2.87075 7.85425 2.87075C8.88342 2.87075 9.83585 3.1145 10.7115 3.602C11.5872 4.0895 12.3501 4.79367 13.0001 5.7145C13.7584 4.7395 14.5619 4.02179 15.4105 3.56138C16.2591 3.10096 17.1709 2.87075 18.1459 2.87075C19.7529 2.87075 21.1025 3.41693 22.1949 4.50929C23.2872 5.60165 23.8334 6.96033 23.8334 8.58533C23.8334 9.41589 23.6845 10.2374 23.3865 11.0499C23.0886 11.8624 22.5695 12.7697 21.8292 13.7718C21.089 14.7739 20.0959 15.9114 18.8501 17.1843C17.6042 18.4572 16.0244 19.9694 14.1105 21.7208L13.0001 22.7228ZM13.0001 20.5833C14.8237 18.9041 16.3268 17.4642 17.5095 16.2635C18.6921 15.0628 19.631 14.011 20.3261 13.1083C21.0213 12.2055 21.5088 11.402 21.7886 10.6978C22.0685 9.99367 22.2084 9.2895 22.2084 8.58533C22.2084 7.39367 21.8292 6.41415 21.0709 5.64679C20.3126 4.87943 19.3376 4.49575 18.1459 4.49575C17.2251 4.49575 16.3674 4.78013 15.573 5.34888C14.7786 5.91763 14.1376 6.71658 13.6501 7.74575H12.323C11.8536 6.73464 11.2216 5.9402 10.4272 5.36242C9.63272 4.78464 8.77508 4.49575 7.85425 4.49575C6.66258 4.49575 5.68758 4.87943 4.92925 5.64679C4.17092 6.41415 3.79175 7.39367 3.79175 8.58533C3.79175 9.2895 3.93168 9.99818 4.21154 10.7114C4.4914 11.4246 4.9789 12.2371 5.67404 13.1489C6.36918 14.0607 7.31258 15.1124 8.50425 16.3041C9.69592 17.4958 11.1945 18.9221 13.0001 20.5833Z" fill="#DB6885"/>
</svg>
